# xmcd CD database file
#
# Track frame offsets:
#	150
#	26062
#	52377
#
# Disc length: 1040 seconds
#
# Revision: 0
# Processed by: cddbd v1.5PL3 Copyright (c) Steve Scherf et al.
# Submitted via: CDex 1.51
#
DISCID=27040e03
DTITLE=デーモン小暮 - LOVE ROMANCE
DYEAR=1995
DGENRE=Rock
TTITLE0=LOVE ROMANCE
TTITLE1=FIGHT FOR YOUR RIGHT
TTITLE2=LOVE ROMANCE (KARAOKE VERSION)
EXTD=YEAR: 1995
EXTT0=
EXTT1=
EXTT2=
PLAYORDER=
